<svg width="80" height="77" viewBox="0 0 80 77" fill="none" xmlns="http://www.w3.org/2000/svg">
<g id="Group 243">
<ellipse id="Ellipse 57" cx="34.2174" cy="23.6053" rx="34.2174" ry="23.6053" transform="matrix(0.863268 -0.504745 0.439628 0.89818 0 34.542)" fill="#FEDFAA"/>
<g id="Group 234">
<path id="Vector" d="M40.02 31.2633L39.9999 31.2837L39.9799 31.2633C37.3607 28.6655 33.0991 28.6655 30.4799 31.2633C29.8526 31.8792 29.3536 32.6182 29.0127 33.4358C28.6718 34.2535 28.4961 35.1331 28.4961 36.0218C28.4961 36.9105 28.6718 37.7901 29.0127 38.6078C29.3536 39.4255 29.8526 40.1644 30.4799 40.7804L39.2244 49.4545C39.4321 49.6606 39.7103 49.7759 39.9999 49.7759C40.2895 49.7759 40.5678 49.6606 40.7755 49.4545L49.52 40.7796C50.1472 40.1637 50.6463 39.4248 50.9871 38.6072C51.328 37.7896 51.5037 36.9101 51.5037 36.0214C51.5037 35.1328 51.328 34.2533 50.9871 33.4357C50.6463 32.618 50.1472 31.8791 49.52 31.2633C46.9023 28.6655 42.6392 28.6655 40.02 31.2633ZM47.9688 39.1468L39.9999 47.0538L32.0311 39.1491C31.6174 38.7451 31.2882 38.2598 31.0633 37.7223C30.8384 37.1848 30.7225 36.6063 30.7225 36.0218C30.7225 35.4373 30.8384 34.8588 31.0633 34.3214C31.2882 33.7839 31.6174 33.2985 32.0311 32.8946C32.8919 32.0524 34.0379 31.5823 35.2299 31.5823C36.4219 31.5823 37.5679 32.0524 38.4287 32.8946L39.2244 33.6844C39.4321 33.8905 39.7103 34.0058 39.9999 34.0058C40.2895 34.0058 40.5678 33.8905 40.7755 33.6844L41.5711 32.8946C43.3353 31.145 46.2046 31.145 47.9688 32.8946C48.3824 33.2985 48.7116 33.7838 48.9365 34.3212C49.1614 34.8586 49.2774 35.437 49.2774 36.0214C49.2774 36.6059 49.1614 37.1843 48.9365 37.7217C48.7116 38.2591 48.3824 38.7444 47.9688 39.1483V39.1468Z" fill="black"/>
<path id="Vector_2" d="M57.6203 34.4895C57.2492 33.8407 56.8989 33.2282 56.723 32.6513C56.5345 32.0328 56.4736 31.2869 56.4105 30.5053C56.2999 29.1409 56.1879 27.7355 55.3841 26.5636C54.5677 25.3704 53.274 24.7905 52.1318 24.2781C51.4638 23.9749 50.8255 23.6929 50.3505 23.3237C49.8755 22.9546 49.4347 22.4111 48.9634 21.8274C48.1514 20.823 47.2311 19.6821 45.8855 19.219C44.5845 18.7725 43.227 19.1045 42.0299 19.4002C41.3033 19.5791 40.6197 19.7489 40 19.7489C39.3803 19.7489 38.6967 19.5791 37.9701 19.4002C36.773 19.1045 35.4148 18.7695 34.1107 19.219C32.7689 19.6821 31.8486 20.823 31.0366 21.8274C30.5653 22.4103 30.12 22.9644 29.6517 23.3245C29.1834 23.6846 28.5384 23.9779 27.8704 24.2789C26.726 24.7913 25.4316 25.3712 24.6159 26.5643C23.8144 27.7355 23.7001 29.1416 23.5895 30.5061C23.5264 31.2914 23.4655 32.0335 23.277 32.6521C23.1011 33.2289 22.7508 33.8414 22.3797 34.4903C21.7333 35.6198 21 36.9016 21 38.4055C21 39.9095 21.7333 41.1913 22.3797 42.3215C22.7508 42.9704 23.1011 43.5829 23.277 44.1598C23.4655 44.7783 23.5264 45.5204 23.5895 46.3057C23.7001 47.6702 23.8121 49.0756 24.6159 50.2475C25.4323 51.4407 26.726 52.0206 27.8682 52.533C28.5362 52.8362 29.1745 53.1182 29.6495 53.4873C30.1245 53.8565 30.5653 54.4 31.0366 54.9837C31.8486 55.9919 32.7689 57.1289 34.1145 57.5921C34.5603 57.7419 35.0271 57.8159 35.4964 57.8112C36.3492 57.8112 37.193 57.6027 37.9701 57.4109C38.6967 57.232 39.3803 57.0622 40 57.0622C40.6197 57.0622 41.3033 57.232 42.0299 57.4109C43.227 57.7066 44.5852 58.0416 45.8855 57.5921C47.2311 57.1289 48.1514 55.9919 48.9634 54.9837C49.4347 54.4008 49.88 53.8467 50.3483 53.4866C50.8166 53.1265 51.4616 52.8332 52.1296 52.5322C53.2718 52.0198 54.5662 51.4399 55.3818 50.2468C56.1834 49.0756 56.2977 47.6694 56.4083 46.305C56.4714 45.5197 56.5322 44.7776 56.7207 44.159C56.8966 43.5821 57.247 42.9697 57.618 42.3208C58.2667 41.1913 59 39.9095 59 38.4055C59 36.9016 58.2667 35.6198 57.6203 34.4895ZM55.6973 41.1746C55.2802 41.9046 54.8489 42.6589 54.5973 43.4828C54.3354 44.3409 54.2619 45.2445 54.1914 46.1178C54.1008 47.2275 54.0162 48.2759 53.559 48.9445C53.1018 49.613 52.1956 50.0201 51.2375 50.4492C50.4767 50.7903 49.69 51.1428 49.0035 51.6749C48.317 52.207 47.7781 52.8779 47.2467 53.5359C46.5632 54.3818 45.9175 55.18 45.1686 55.4378C44.4784 55.6765 43.5417 55.4453 42.5494 55.2005C41.7286 54.9973 40.8795 54.7881 39.997 54.7881C39.1146 54.7881 38.2655 54.9973 37.4446 55.2005C36.4523 55.4453 35.515 55.6765 34.8255 55.4378C34.0833 55.18 33.4339 54.3818 32.7473 53.5359C32.2159 52.8779 31.666 52.1979 30.9906 51.6749C30.3041 51.1443 29.5173 50.7903 28.7566 50.4492C27.7984 50.0201 26.893 49.6153 26.435 48.9445C25.9771 48.2736 25.8932 47.2275 25.8027 46.1178C25.7285 45.2445 25.6587 44.3409 25.3967 43.4828C25.1451 42.6589 24.7139 41.9046 24.2968 41.1746C23.7461 40.2074 23.2266 39.294 23.2266 38.4055C23.2266 37.5171 23.7461 36.6037 24.3027 35.6364C24.7198 34.9065 25.1511 34.1522 25.4027 33.3282C25.6646 32.4701 25.7381 31.5666 25.8086 30.6933C25.8984 29.5836 25.9838 28.5352 26.441 27.8689C26.8982 27.2026 27.8044 26.7932 28.7625 26.3642C29.5233 26.0231 30.31 25.6706 30.9965 25.1385C31.6719 24.6154 32.2219 23.9355 32.7533 23.2775C33.4368 22.4315 34.0825 21.6333 34.8314 21.3756C35.0482 21.3049 35.2748 21.2706 35.5023 21.274C36.079 21.274 36.75 21.4393 37.4476 21.6113C38.2685 21.8145 39.1175 22.0237 40 22.0237C40.8825 22.0237 41.7315 21.8145 42.5524 21.6113C43.5447 21.3665 44.4821 21.1353 45.1716 21.3741C45.9175 21.6318 46.5632 22.43 47.2497 23.276C47.7811 23.934 48.3311 24.6139 49.0064 25.1369C49.6818 25.66 50.4797 26.0216 51.2404 26.3627C52.1986 26.7917 53.1041 27.1965 53.562 27.8674C54.0199 28.5382 54.1038 29.5843 54.1943 30.6941C54.2686 31.5673 54.3383 32.4709 54.6003 33.329C54.8519 34.153 55.2831 34.9072 55.7002 35.6372C56.2539 36.6037 56.7734 37.5171 56.7734 38.4055C56.7734 39.294 56.2539 40.2074 55.6973 41.1746Z" fill="black"/>
</g>
</g>
</svg>
