<svg width="80" height="77" viewBox="0 0 80 77" fill="none" xmlns="http://www.w3.org/2000/svg">
<g id="Group 244">
<ellipse id="Ellipse 57" cx="34.2174" cy="23.6053" rx="34.2174" ry="23.6053" transform="matrix(0.863268 -0.504745 0.439628 0.89818 0 34.542)" fill="#FEDFAA"/>
<path id="Vector" d="M59.8758 25.642L55.9695 17.1032C55.8723 16.8904 55.7228 16.7114 55.5378 16.5863C55.3528 16.4611 55.1395 16.3947 54.9219 16.3945H25.0781C24.8605 16.3945 24.6471 16.4606 24.4619 16.5857C24.2767 16.7107 24.1271 16.8896 24.0297 17.1024L20.1234 25.6411C20.042 25.8189 19.9997 26.0152 20 26.2141V31.3159C20.0008 32.4993 20.3002 33.6595 20.8653 34.6688C21.4304 35.6782 22.2394 36.4976 23.2031 37.0369V58.8319C23.2031 59.1716 23.3266 59.4974 23.5464 59.7376C23.7661 59.9778 24.0642 60.1127 24.375 60.1127H55.625C55.9358 60.1127 56.2339 59.9778 56.4536 59.7376C56.6734 59.4974 56.7969 59.1716 56.7969 58.8319V37.0343C57.7606 36.495 58.5696 35.6756 59.1347 34.6663C59.6998 33.6569 59.9992 32.4967 60 31.3134V26.2141C59.9999 26.0154 59.9574 25.8195 59.8758 25.642ZM25.8023 18.9561H54.1977L56.932 24.9332H23.068L25.8023 18.9561ZM41.1719 27.4949H48.2422V31.3159C48.2422 32.3407 47.8697 33.3234 47.2068 34.048C46.5438 34.7726 45.6446 35.1797 44.707 35.1797C43.7695 35.1797 42.8703 34.7726 42.2073 34.048C41.5443 33.3234 41.1719 32.3407 41.1719 31.3159V27.4949ZM31.7578 27.4949H38.8281V31.3159C38.8281 32.3407 38.4557 33.3234 37.7927 34.048C37.1297 34.7726 36.2306 35.1797 35.293 35.1797C34.3554 35.1797 33.4562 34.7726 32.7932 34.048C32.1303 33.3234 31.7578 32.3407 31.7578 31.3159V27.4949ZM22.3438 27.4949H29.4141V31.3159C29.4141 32.3407 29.0416 33.3234 28.3786 34.048C27.7157 34.7726 26.8165 35.1797 25.8789 35.1797C24.9413 35.1797 24.0421 34.7726 23.3792 34.048C22.7162 33.3234 22.3438 32.3407 22.3438 31.3159V27.4949ZM45.0781 57.5511H34.9219V49.4394C34.9219 47.9674 35.4569 46.5557 36.4092 45.5148C37.3616 44.4739 38.6532 43.8892 40 43.8892C41.3468 43.8892 42.6384 44.4739 43.5908 45.5148C44.5431 46.5557 45.0781 47.9674 45.0781 49.4394V57.5511ZM54.4531 57.5511H47.4219V49.4394C47.4219 47.288 46.6399 45.2247 45.2481 43.7035C43.8562 42.1822 41.9684 41.3276 40 41.3276C38.0316 41.3276 36.1438 42.1822 34.7519 43.7035C33.3601 45.2247 32.5781 47.288 32.5781 49.4394V57.5511H25.5469V37.7302C25.657 37.737 25.7672 37.7413 25.8789 37.7413C26.7931 37.7413 27.6947 37.508 28.5119 37.0601C29.3291 36.6121 30.0393 35.9618 30.5859 35.1609C31.1326 35.9618 31.8428 36.6121 32.66 37.0601C33.4772 37.5081 34.3788 37.7413 35.293 37.7413C36.2072 37.7413 37.1088 37.5081 37.9259 37.0601C38.7431 36.6121 39.4533 35.9618 40 35.1609C40.5467 35.9618 41.2569 36.6121 42.0741 37.0601C42.8912 37.5081 43.7928 37.7413 44.707 37.7413C45.6212 37.7413 46.5228 37.5081 47.34 37.0601C48.1572 36.6121 48.8674 35.9618 49.4141 35.1609C49.9607 35.9618 50.6709 36.6121 51.4881 37.0601C52.3053 37.508 53.2069 37.7413 54.1211 37.7413C54.2328 37.7413 54.343 37.737 54.4531 37.7302V57.5511ZM57.6563 31.3159C57.6563 32.3407 57.2838 33.3234 56.6208 34.048C55.9579 34.7726 55.0587 35.1797 54.1211 35.1797C53.1835 35.1797 52.2843 34.7726 51.6214 34.048C50.9584 33.3234 50.5859 32.3407 50.5859 31.3159V27.4949H57.6563V31.3159Z" fill="black"/>
</g>
</svg>
