<svg width="80" height="77" viewBox="0 0 80 77" fill="none" xmlns="http://www.w3.org/2000/svg">
<g id="Group 245">
<ellipse id="Ellipse 57" cx="34.2174" cy="23.6053" rx="34.2174" ry="23.6053" transform="matrix(0.863268 -0.504745 0.439628 0.89818 0 34.542)" fill="#FEDFAA"/>
<g id="Group 233">
<path id="Vector" d="M59.976 56.4177L56.0697 37.1876C56.0157 36.9174 55.872 36.6745 55.6629 36.5C55.4538 36.3256 55.1921 36.2302 54.9221 36.2301H48.6721C50.4369 32.9921 51.3283 30.4243 51.3283 28.57C51.3283 22.1905 46.2502 17 40.0002 17C33.7502 17 28.6721 22.1905 28.6721 28.57C28.6721 30.4243 29.565 32.9921 31.3283 36.2301H25.0783C24.8083 36.2302 24.5466 36.3256 24.3375 36.5C24.1284 36.6745 23.9847 36.9174 23.9307 37.1876L20.0244 56.4177C19.9897 56.5915 19.9932 56.7711 20.0348 56.9434C20.0763 57.1157 20.1549 57.2763 20.2647 57.4138C20.3745 57.5513 20.5129 57.6621 20.6699 57.7382C20.8268 57.8143 20.9983 57.8539 21.1721 57.8539H58.8283C59.002 57.8539 59.1736 57.8143 59.3305 57.7382C59.4874 57.6621 59.6258 57.5513 59.7357 57.4138C59.8455 57.2763 59.9241 57.1157 59.9656 56.9434C60.0072 56.7711 60.0107 56.5915 59.976 56.4177ZM40.0002 19.3938C42.3822 19.3965 44.6658 20.3642 46.3501 22.0845C48.0344 23.8047 48.9819 26.1371 48.9846 28.57C48.9846 32.4966 43.1525 40.9027 40.0002 45.0073C36.8471 40.9027 31.0158 32.499 31.0158 28.57C31.0185 26.1371 31.9659 23.8047 33.6502 22.0845C35.3346 20.3642 37.6182 19.3965 40.0002 19.3938ZM22.6119 55.4601L26.0322 38.6239H32.7189C33.1018 39.2489 33.5116 39.8944 33.9486 40.5604C36.49 44.4368 38.9893 47.5511 39.0947 47.6819C39.2047 47.8186 39.3429 47.9287 39.4994 48.0043C39.656 48.0798 39.827 48.119 40.0002 48.119C40.1734 48.119 40.3444 48.0798 40.5009 48.0043C40.6575 47.9287 40.7957 47.8186 40.9057 47.6819C41.0111 47.5511 43.5103 44.4368 46.0518 40.5604C46.4887 39.8944 46.8986 39.2489 47.2814 38.6239H53.9682L57.3885 55.4601H22.6119Z" fill="black"/>
<path id="Vector_2" d="M44.6875 28.5698C44.6875 27.6229 44.4126 26.6973 43.8975 25.91C43.3824 25.1227 42.6504 24.509 41.7938 24.1467C40.9373 23.7843 39.9948 23.6895 39.0855 23.8742C38.1762 24.059 37.341 24.5149 36.6854 25.1845C36.0299 25.854 35.5834 26.7071 35.4026 27.6358C35.2217 28.5645 35.3145 29.5271 35.6693 30.4019C36.0241 31.2767 36.6249 32.0245 37.3958 32.5505C38.1666 33.0766 39.0729 33.3574 40 33.3574C41.2428 33.3559 42.4342 32.851 43.313 31.9535C44.1917 31.056 44.6861 29.8391 44.6875 28.5698ZM37.6563 28.5698C37.6563 28.0964 37.7937 27.6335 38.0512 27.2399C38.3088 26.8462 38.6748 26.5394 39.1031 26.3582C39.5314 26.177 40.0026 26.1296 40.4572 26.222C40.9119 26.3144 41.3295 26.5424 41.6573 26.8771C41.9851 27.2119 42.2083 27.6384 42.2987 28.1028C42.3892 28.5671 42.3427 29.0485 42.1653 29.4859C41.988 29.9233 41.6875 30.2971 41.3021 30.5602C40.9167 30.8232 40.4636 30.9636 40 30.9636C39.3784 30.9636 38.7823 30.7114 38.3427 30.2625C37.9032 29.8135 37.6563 29.2047 37.6563 28.5698Z" fill="black"/>
</g>
</g>
</svg>
