<svg width="19" height="20" viewBox="0 0 19 20" fill="none" xmlns="http://www.w3.org/2000/svg">
<g id="98e6f17209029f4ae6dc9d88ec8eac2c 1" clip-path="url(#clip0_1_80)">
<g id="Group">
<g id="Group_2">
<path id="Vector" d="M11.8617 4.66291C11.742 4.66291 11.6394 4.61921 11.5539 4.53371C11.4684 4.44821 11.4247 4.34561 11.4247 4.22591C11.4247 4.10621 11.4684 4.00361 11.5539 3.91811C11.6394 3.83261 11.742 3.78891 11.8617 3.78891C11.9814 3.78891 12.0821 3.83261 12.1638 3.91811C12.2455 4.00361 12.2873 4.10621 12.2873 4.22591C12.2873 4.34561 12.2455 4.44821 12.1638 4.53371C12.0802 4.61921 11.9795 4.66291 11.8617 4.66291ZM7.1383 4.66291C7.0186 4.66291 6.9179 4.61921 6.8362 4.53371C6.7545 4.44821 6.7127 4.34561 6.7127 4.22591C6.7127 4.10621 6.7545 4.00361 6.8362 3.91811C6.9179 3.83261 7.0186 3.78891 7.1383 3.78891C7.258 3.78891 7.3606 3.83261 7.4461 3.91811C7.5316 4.00361 7.5753 4.10621 7.5753 4.22591C7.5753 4.34561 7.5316 4.44821 7.4461 4.53371C7.3606 4.61921 7.258 4.66291 7.1383 4.66291ZM16.226 6.72061C15.9125 6.72061 15.6446 6.83271 15.4204 7.05691C15.1962 7.28111 15.0841 7.54901 15.0841 7.86251V12.6733C15.0841 12.9944 15.1943 13.2661 15.4147 13.4903C15.6351 13.7145 15.9049 13.8266 16.226 13.8266C16.5471 13.8266 16.8188 13.7145 17.043 13.4903C17.2672 13.2661 17.3793 12.9944 17.3793 12.6733V7.86251C17.3793 7.54901 17.2672 7.28111 17.043 7.05691C16.8188 6.83271 16.5452 6.72061 16.226 6.72061ZM4.3643 6.93341V14.3852C4.3643 14.7291 4.484 15.0198 4.7215 15.2573C4.9609 15.4967 5.2478 15.6145 5.5822 15.6145H6.422V18.1548C6.422 18.4759 6.5341 18.7476 6.7583 18.9718C6.9825 19.196 7.2542 19.3081 7.5753 19.3081C7.8964 19.3081 8.1681 19.196 8.3923 18.9718C8.6165 18.7476 8.7286 18.4759 8.7286 18.1548V15.6164H10.2733V18.1567C10.2733 18.4778 10.3854 18.7495 10.6096 18.9737C10.8338 19.1979 11.1055 19.31 11.4266 19.31C11.7401 19.31 12.008 19.1979 12.2322 18.9737C12.4564 18.7495 12.5685 18.4778 12.5685 18.1567L12.578 15.6164H13.4064C13.7503 15.6164 14.041 15.4967 14.2785 15.2592C14.5179 15.0198 14.6357 14.7291 14.6357 14.3871V6.93341H4.3643ZM6.9597 2.40191C6.1617 2.81231 5.5233 3.38421 5.0464 4.11951C4.5695 4.85481 4.3301 5.65851 4.3301 6.53061H14.6813C14.6813 5.65851 14.4419 4.85481 13.965 4.11951C13.4881 3.38421 12.8459 2.81231 12.0403 2.40191L12.8345 0.937012C12.8858 0.840112 12.8687 0.766012 12.7794 0.712812C12.6825 0.667212 12.6084 0.690012 12.5552 0.779312L11.7496 2.25561C11.0409 1.94401 10.2904 1.78631 9.5 1.78631C8.7096 1.78631 7.9591 1.94211 7.2504 2.25561L6.4448 0.779312C6.3935 0.690012 6.3175 0.667212 6.2206 0.712812C6.1313 0.764112 6.1123 0.840112 6.1655 0.937012L6.9597 2.40191ZM1.6226 7.86251V12.6733C1.6226 12.9944 1.7347 13.2661 1.9589 13.4903C2.1831 13.7145 2.4548 13.8266 2.7759 13.8266C3.0894 13.8266 3.3573 13.7145 3.5815 13.4903C3.8057 13.2661 3.9178 12.9944 3.9178 12.6733V7.86251C3.9178 7.54141 3.8057 7.27161 3.5815 7.05121C3.3573 6.83081 3.0894 6.72061 2.7759 6.72061C2.4548 6.72061 2.1831 6.83081 1.9589 7.05121C1.7347 7.27161 1.6226 7.54141 1.6226 7.86251Z" fill="black"/>
</g>
</g>
</g>
<defs>
<clipPath id="clip0_1_80">
<rect width="19" height="19" fill="white" transform="matrix(-1 0 0 1 19 0.5)"/>
</clipPath>
</defs>
</svg>
