<svg width="20" height="20" viewBox="0 0 20 20" fill="none" xmlns="http://www.w3.org/2000/svg">
<g id="5903e4e2ed5758ad3fb0da68c379744f 1">
<g id="Group">
<path id="Vector" d="M15.444 10.626C15.444 8.93003 16.35 7.48003 17.636 6.87003C17.278 6.40203 16.798 5.96203 16.152 5.50203C15.316 4.90603 13.464 4.83803 12.25 5.14803C11.328 5.38203 10.542 5.83403 10.122 5.85403C9.74201 5.87403 8.92601 5.36603 7.99401 5.14803C6.87001 4.88403 5.64401 5.03203 4.80201 5.50203C2.35401 6.87003 1.96201 8.26803 1.96201 11.156C1.96201 14.484 3.16801 17.306 5.86401 19.286C6.45601 19.72 7.52001 19.976 8.34801 19.64C9.06001 19.35 9.44001 18.996 10.122 18.934C11.118 18.844 11.582 19.178 12.062 19.476C12.498 19.746 13.504 19.964 14.024 19.642C15.846 18.514 17.28 16.67 18.038 14.542C16.542 14.062 15.444 12.492 15.444 10.626ZM13.314 3.02803C14.038 1.89203 14.04 0.194028 14.024 0.200028C13.724 0.300028 12.712 0.0640281 11.186 1.26003C10.654 1.67803 10 2.70603 9.76601 3.38003C9.58801 3.89203 9.41401 5.14603 9.41001 5.14803C9.39201 5.15003 10.58 5.08403 11.184 4.79403C11.804 4.49803 12.846 3.76403 13.314 3.02803Z" fill="black"/>
</g>
</g>
</svg>
