<svg width="147" height="49" viewBox="0 0 147 49" fill="none" xmlns="http://www.w3.org/2000/svg">
<g id="Fichier 11 1" clip-path="url(#clip0_1_10)">
<g id="Calque 1">
<g id="Group">
<path id="Vector" d="M20.018 0C8.96316 0 0.00012207 9.09328 0.00012207 20.3088C0.00012207 20.7483 0.0136614 21.1845 0.0407401 21.6206C0.335221 26.3595 2.24088 30.6623 5.19923 33.9659C5.63249 34.4466 6.08605 34.9068 6.55993 35.3463L20.018 49.0034L33.4761 35.3498C33.95 34.9102 34.4036 34.4501 34.8368 33.9693C37.7952 30.6658 39.7009 26.3664 39.9953 21.624C40.0258 21.1913 40.0359 20.7518 40.0359 20.3122C40.0393 9.09328 31.0763 0 20.018 0ZM30.9984 24.1858C30.9984 30.3327 26.0769 35.3154 20.0147 35.3154C13.9524 35.3154 9.0444 30.3327 9.0444 24.1858C9.0444 19.4984 11.6812 15.5149 15.6347 13.9009C15.6595 13.8872 15.6843 13.8746 15.7091 13.8631C15.7328 13.8494 15.7599 13.8494 15.7836 13.8494C15.9596 13.8494 16.0984 14.0039 16.0984 14.1825C16.0984 14.2718 16.0476 14.3508 15.9969 14.4126C14.6598 15.5389 13.8746 17.2937 13.8746 19.2786C13.8746 19.4056 13.8746 19.5464 13.8881 19.6769C13.9761 21.1226 14.5583 22.455 15.4654 23.4543C15.6042 23.6089 15.743 23.7497 15.8818 23.8905L20.0113 28.0662L23.8497 24.1858L24.1441 23.887C24.1848 23.8493 24.222 23.808 24.2592 23.7703C24.3642 23.6673 24.4691 23.5677 24.5571 23.4578C25.2679 22.6783 25.7689 21.6893 26.0058 20.6041C26.0701 20.3019 26.1243 19.9929 26.1446 19.6769C26.1514 19.5499 26.1581 19.4125 26.1581 19.2786C26.1581 16.8473 24.7737 14.7491 22.7665 13.7223C22.0286 13.3446 21.2129 13.1042 20.3396 13.0596C20.3667 13.0596 20.3938 13.0664 20.4208 13.0664C20.3938 13.0664 20.3701 13.0561 20.343 13.0561C20.2347 13.0493 20.1297 13.0493 20.0147 13.0493V8.89067C20.0147 8.5404 20.2956 8.25195 20.6442 8.25195H30.3621C30.7073 8.25195 30.9917 8.53697 30.9917 8.89067V23.5505C30.9984 23.7291 30.9951 24.0107 30.9951 24.1892L30.9984 24.1858Z" fill="white"/>
<g id="Group_2">
<path id="Vector_2" d="M47.2896 31.6685V30.6417C47.7297 31.0092 48.1832 31.3045 48.6537 31.538C49.1242 31.7715 49.6083 31.8848 50.1058 31.8848C51.0062 31.8848 51.6358 31.5895 51.9946 31.0023C52.3534 30.4116 52.5327 29.6287 52.5327 28.65V18.0251H53.3113V28.65C53.3113 29.5737 53.1894 30.3395 52.9457 30.9474C52.702 31.5586 52.3398 32.0085 51.8626 32.3038C51.3853 32.5991 50.7997 32.7468 50.1092 32.7468C49.5846 32.7468 49.0904 32.6438 48.6368 32.4446C48.1799 32.242 47.7297 31.9844 47.293 31.6754L47.2896 31.6685Z" fill="white"/>
<path id="Vector_3" d="M57.082 21.26H57.8808V28.3753C57.8808 29.5394 58.1347 30.4254 58.6424 31.0367C59.1501 31.6479 59.8914 31.957 60.873 31.957C61.6718 31.957 62.342 31.7166 62.887 31.2393C63.4285 30.7619 63.8415 30.1335 64.1224 29.354C64.4034 28.5745 64.5455 27.74 64.5455 26.8472H65.0973C65.0973 27.9941 64.928 29.0072 64.5895 29.8931C64.2511 30.7757 63.767 31.4693 63.1341 31.9707C62.5011 32.4721 61.7463 32.7228 60.8662 32.7228C60.0606 32.7228 59.3769 32.5545 58.815 32.2145C58.2531 31.8746 57.8266 31.3835 57.5322 30.7345C57.2377 30.0854 57.0887 29.299 57.0887 28.3753V21.26H57.082ZM64.5421 21.26H65.341V32.5064H64.5421V21.26Z" fill="white"/>
<path id="Vector_4" d="M73.5898 32.7434C72.5947 32.7434 71.7924 32.582 71.1764 32.2592C70.5604 31.9364 70.1034 31.5106 69.8056 30.9817C69.5077 30.4529 69.3384 29.876 69.3046 29.2578H70.1677C70.2117 30.1507 70.5299 30.8238 71.129 31.2805C71.7248 31.7372 72.5473 31.9673 73.5898 31.9673C74.1212 31.9673 74.6188 31.8677 75.0859 31.6685C75.5496 31.4694 75.9287 31.1912 76.2198 30.8375C76.5109 30.4838 76.6565 30.082 76.6565 29.639C76.6565 29.0758 76.4669 28.6294 76.0844 28.3101C75.7019 27.9873 75.096 27.7125 74.26 27.479L72.5439 26.9674C71.6164 26.6892 70.909 26.2874 70.4216 25.762C69.9342 25.2366 69.6938 24.6048 69.6938 23.863C69.6938 23.0045 70.0256 22.3143 70.6856 21.7992C71.349 21.2806 72.202 21.0231 73.2445 21.0231C74.4259 21.0231 75.3465 21.2703 76.0133 21.7648C76.6802 22.2593 77.0322 22.8706 77.0762 23.602H76.169C76.0743 22.9736 75.7798 22.5134 75.2788 22.2181C74.7779 21.9228 74.1009 21.7751 73.2445 21.7751C72.3882 21.7751 71.7011 22.0018 71.2272 22.4551C70.7533 22.9083 70.513 23.3925 70.513 23.9111C70.513 24.9447 71.3152 25.6968 72.9196 26.1672L74.5274 26.6583C75.4921 26.9433 76.2232 27.3245 76.7174 27.7984C77.2116 28.2723 77.4621 28.887 77.4621 29.6425C77.4621 30.1747 77.3097 30.6795 77.0085 31.1534C76.7072 31.6273 76.2672 32.0119 75.6918 32.3038C75.1164 32.5991 74.4157 32.7468 73.5864 32.7468L73.5898 32.7434Z" fill="white"/>
<path id="Vector_5" d="M79.7942 21.964V21.26H86.0866V21.964H79.7942ZM84.1776 32.7434C83.6732 32.7434 83.2332 32.6335 82.8541 32.4103C82.4784 32.1871 82.1839 31.8608 81.974 31.4316C81.7642 31.0023 81.6626 30.4804 81.6626 29.8691V17.9908H82.4175V29.8691C82.4175 31.2702 82.9997 31.9707 84.164 31.9707C84.5025 31.9707 84.8241 31.9295 85.1253 31.8471C85.4266 31.7613 85.7651 31.6445 86.1408 31.4934L86.2389 32.1733C85.9072 32.3485 85.5687 32.4893 85.2235 32.5923C84.8782 32.6953 84.5296 32.7468 84.1776 32.7468V32.7434Z" fill="white"/>
<path id="Vector_6" d="M93.4588 32.8155C92.5652 32.8155 91.7596 32.5614 91.042 32.0531C90.321 31.5449 89.7524 30.8341 89.3327 29.9275C88.9096 29.0209 88.6997 27.9701 88.6997 26.775C88.6997 25.5113 88.9096 24.4262 89.3259 23.523C89.7422 22.6199 90.3109 21.9262 91.0319 21.4386C91.7494 20.9544 92.5618 20.7106 93.4622 20.7106C94.2678 20.7106 94.9583 20.8926 95.5337 21.2531C96.1091 21.6172 96.5728 22.1013 96.9249 22.7092C97.2769 23.317 97.5206 24.0072 97.6526 24.7799C97.7846 25.5525 97.8083 26.3492 97.7237 27.1665H90.3414V25.8547H96.3224L95.8248 26.2119C95.8485 25.7826 95.8248 25.3534 95.7672 24.9207C95.7063 24.4914 95.5879 24.0965 95.4152 23.7325C95.2426 23.3685 94.9989 23.08 94.6875 22.8603C94.3761 22.6405 93.9767 22.5306 93.4926 22.5306C92.8901 22.5306 92.3824 22.6989 91.9762 23.032C91.5701 23.3651 91.262 23.8149 91.0522 24.3747C90.8423 24.9344 90.7408 25.5491 90.7408 26.2187V27.1391C90.7408 27.8808 90.8423 28.5367 91.042 29.1102C91.2417 29.6837 91.543 30.1335 91.9424 30.4666C92.3418 30.7963 92.8461 30.9611 93.4588 30.9611C94.0714 30.9611 94.5487 30.8066 94.9447 30.4975C95.3374 30.1885 95.5777 29.7214 95.6725 29.0999H97.7677C97.6594 29.8485 97.4123 30.501 97.023 31.0573C96.6338 31.6136 96.1362 32.0463 95.5269 32.3519C94.9177 32.6575 94.2305 32.812 93.4588 32.812V32.8155Z" fill="white"/>
<path id="Vector_7" d="M100.97 32.503V21.0196H102.75L103.021 23.5024V32.503H100.97ZM108.247 32.503V25.7689C108.247 24.773 108.03 24.021 107.604 23.5059C107.178 22.9942 106.599 22.7367 105.871 22.7367C105.296 22.7367 104.791 22.9084 104.365 23.2552C103.938 23.602 103.607 24.1068 103.373 24.773C103.139 25.4358 103.021 26.2462 103.021 27.2009H102.286C102.286 25.7929 102.449 24.6082 102.777 23.6432C103.106 22.6817 103.573 21.9503 104.185 21.4523C104.798 20.9544 105.532 20.7072 106.389 20.7072C107.245 20.7072 107.932 20.9132 108.511 21.3287C109.09 21.7442 109.53 22.3314 109.835 23.0904C110.136 23.8493 110.288 24.7421 110.288 25.7689V32.503H108.247Z" fill="white"/>
<path id="Vector_8" d="M113.764 32.503V16.1846H115.816V29.7455L115.159 32.503H113.768H113.764ZM118.764 32.8121C118.087 32.8121 117.474 32.6095 116.922 32.2111C116.371 31.8094 115.934 31.2153 115.606 30.4254C115.277 29.6356 115.115 28.6707 115.115 27.5237H115.816C115.816 28.1933 115.948 28.7702 116.208 29.2544C116.472 29.7386 116.807 30.1129 117.217 30.3705C117.626 30.628 118.056 30.7585 118.5 30.7585C119.031 30.7585 119.512 30.5971 119.942 30.2709C120.368 29.9447 120.713 29.4777 120.967 28.8664C121.221 28.2586 121.35 27.5409 121.35 26.7133C121.35 25.8857 121.225 25.1886 120.971 24.5945C120.72 24.0004 120.378 23.5437 119.945 23.2209C119.515 22.8981 119.024 22.7367 118.476 22.7367C118.016 22.7367 117.582 22.8603 117.176 23.1075C116.77 23.3548 116.442 23.7188 116.188 24.1996C115.937 24.6803 115.809 25.2675 115.809 25.9612H115.108C115.108 24.8383 115.267 23.8871 115.582 23.1075C115.9 22.328 116.34 21.7305 116.906 21.3219C117.471 20.9132 118.134 20.7072 118.896 20.7072C119.722 20.7072 120.48 20.951 121.167 21.4421C121.854 21.9297 122.406 22.6268 122.819 23.5231C123.232 24.4228 123.438 25.4873 123.438 26.7098C123.438 27.9323 123.225 29.0141 122.802 29.9275C122.375 30.8375 121.81 31.5484 121.103 32.0532C120.395 32.558 119.61 32.8121 118.754 32.8121H118.764Z" fill="white"/>
<path id="Vector_9" d="M129.781 32.8156C128.912 32.8156 128.187 32.6473 127.612 32.3073C127.036 31.9674 126.606 31.5244 126.322 30.9749C126.038 30.4255 125.896 29.8417 125.896 29.2202C125.896 28.4647 126.068 27.8397 126.417 27.3521C126.766 26.861 127.25 26.497 127.869 26.26C128.488 26.0231 129.199 25.9029 130.005 25.9029C130.56 25.9029 131.098 25.9578 131.623 26.0712C132.147 26.1811 132.665 26.3287 133.176 26.5142V27.8878C132.76 27.7195 132.296 27.589 131.789 27.4894C131.281 27.3898 130.807 27.3383 130.367 27.3383C129.714 27.3383 129.165 27.4825 128.725 27.7676C128.285 28.0526 128.065 28.5402 128.065 29.2236C128.065 29.725 128.238 30.1576 128.583 30.5182C128.928 30.8788 129.473 31.0608 130.225 31.0608C130.773 31.0608 131.254 30.9234 131.67 30.6487C132.087 30.374 132.411 30.0306 132.642 29.6151C132.872 29.1996 132.987 28.7875 132.987 28.372H133.484C133.484 29.1686 133.339 29.9035 133.048 30.5732C132.757 31.2462 132.334 31.7854 131.779 32.1975C131.223 32.6095 130.553 32.8121 129.771 32.8121L129.781 32.8156ZM133.258 32.5065L132.997 29.8692V25.0822C132.997 24.1447 132.821 23.4613 132.469 23.0355C132.117 22.6097 131.558 22.3968 130.797 22.3968C130.364 22.3968 129.981 22.4654 129.646 22.6062C129.311 22.747 129.05 22.9565 128.857 23.2347C128.668 23.5128 128.57 23.8631 128.57 24.2855H126.302C126.302 23.4407 126.488 22.7573 126.864 22.2319C127.239 21.7065 127.761 21.3219 128.434 21.0815C129.108 20.8377 129.893 20.7175 130.794 20.7175C131.636 20.7175 132.378 20.8721 133.017 21.1777C133.657 21.4833 134.158 21.9641 134.513 22.6165C134.869 23.269 135.048 24.1138 135.048 25.1474V32.5134H133.258V32.5065Z" fill="white"/>
<path id="Vector_10" d="M142.745 32.8155C141.737 32.8155 140.89 32.6575 140.2 32.345C139.509 32.0291 138.981 31.593 138.619 31.0332C138.257 30.47 138.068 29.8141 138.054 29.0552H139.987C140.014 29.7145 140.254 30.2056 140.704 30.525C141.155 30.8443 141.764 31.0023 142.532 31.0023C142.942 31.0023 143.314 30.9302 143.649 30.786C143.984 30.6417 144.252 30.4494 144.448 30.2022C144.648 29.9549 144.746 29.6768 144.746 29.3643C144.746 28.9762 144.617 28.6672 144.357 28.4405C144.096 28.2139 143.68 28.0147 143.104 27.8396L140.978 27.0394C140.129 26.7201 139.479 26.2977 139.025 25.7689C138.572 25.24 138.345 24.6047 138.345 23.8664C138.345 22.9186 138.728 22.1563 139.489 21.5794C140.251 21.0024 141.263 20.714 142.522 20.714C143.781 20.714 144.83 21.0196 145.538 21.6274C146.249 22.2353 146.618 22.9976 146.645 23.9145H144.668C144.617 23.4612 144.414 23.1109 144.059 22.8706C143.703 22.6267 143.189 22.5065 142.522 22.5065C141.896 22.5065 141.405 22.6576 141.05 22.9598C140.694 23.262 140.515 23.602 140.515 23.9866C140.515 24.67 141.046 25.1816 142.112 25.5147L144.346 26.387C145.196 26.6892 145.849 27.0807 146.31 27.558C146.77 28.0353 147 28.6397 147 29.3711C147 29.9618 146.824 30.5181 146.472 31.0435C146.12 31.5689 145.626 31.9947 144.986 32.3278C144.35 32.6575 143.602 32.8223 142.745 32.8223V32.8155Z" fill="white"/>
</g>
</g>
</g>
</g>
<defs>
<clipPath id="clip0_1_10">
<rect width="147" height="49" fill="white"/>
</clipPath>
</defs>
</svg>
